<?xml version="1.0" encoding="UTF-8"?> <svg xmlns="http://www.w3.org/2000/svg" width="642" height="144" fill="none" viewBox="0 0 642 144"><g clip-path="url(#a)"><path fill="#fff" d="M93.22 3.36v13.23h-16.8V3.36h16.8Zm109.39 0v13.23h-16.8V3.36h16.8Zm328.78 2.19c.76-.04 1.44-.12 2.12-.12 2.55-.01 5.11 0 7.84 0v10.05h-9.96V5.55ZM16.07 115.66H.16c-.05-.78-.13-1.52-.13-2.26 0-24.68 0-49.36-.02-74.03 0-3.37 1.17-6.21 3.85-8.1 2.39-1.69 4.98-3.33 7.73-4.21 9.14-2.93 18.52-3.49 27.93-1.49 10.87 2.31 17.79 8.97 20.52 19.7 2.34 9.2 2.61 18.51-.17 27.67-3.25 10.7-10.15 17.74-21.49 19.65-6.8 1.14-13.51.36-20.03-1.9-.59-.2-1.17-.41-1.76-.61-.06-.02-.15.05-.51.17v25.42l-.01-.01Zm-.06-39.27c5.11 2.67 10.23 3.8 15.77 3.01 6.21-.89 10.33-4.25 12.04-10.23 2.08-7.29 1.92-14.64-.4-21.85-1.28-4-4.01-6.91-8.16-8.03-5.15-1.4-10.36-1.24-15.46.29-3.01.9-3.79 2.16-3.79 5.33v31.48Zm266.84 14.78h-9.1V25.99h9v8.22c1.09-.84 1.74-1.34 2.4-1.83 5.24-3.93 10.95-6.56 17.67-6.45 7.43.11 13.64 2.84 18.43 8.61.25.3.5.6.77.87.1.1.27.14-.02 0 3.45-2.37 6.51-4.99 10-6.77 7.42-3.78 15.25-3.72 22.9-.71 7.47 2.94 11.08 9 12.2 16.68.32 2.22.39 4.5.4 6.75.04 12.23.02 24.46.02 36.69v3.01h-9.15c-.04-.83-.13-1.72-.13-2.62 0-12.78.05-25.55-.05-38.33-.02-2.62-.36-5.29-.95-7.85-.78-3.33-2.95-5.63-6.32-6.59-4.36-1.24-8.78-1.41-13.15-.13-7.61 2.22-11.61 7.73-11.64 16.03-.05 12.23-.01 24.46-.01 36.69v2.87h-9.2v-2.86c0-12.93.04-25.86-.04-38.79-.02-2.39-.31-4.83-.87-7.15-.82-3.42-3.01-5.81-6.5-6.69-7.31-1.84-14.26-1.12-20.5 3.41-4.09 2.97-6.27 6.85-6.21 12.12.16 12.38.05 24.77.05 37.16v2.84ZM129.89 59.22c-7.84-10.87-15.57-21.6-23.52-32.62h19.66c4.78 6.61 9.74 13.46 14.93 20.63 5-7.05 9.84-13.88 14.71-20.75h17.59c-8.17 10.78-16.13 21.28-24.22 31.96 7.77 10.79 15.53 21.56 23.52 32.65H152.9c-4.86-6.71-9.82-13.58-15.01-20.75-4.99 7.1-9.84 14-14.68 20.88h-17.53c8.07-10.88 16.17-21.26 24.2-32h.01Zm371.28-29.68V0h9.45v2.61c0 25.38-.06 50.76.06 76.15.02 4.82-2.03 7.99-6.06 10.17-3.68 2-7.69 2.95-11.79 3.59-5.19.82-10.36.95-15.57-.08-9.77-1.95-16.67-7.46-19.89-16.79-3.85-11.13-4.05-22.5.21-33.61 3.55-9.27 10.65-14.19 20.42-15.65 6.75-1.01 13.19.21 19.59 2.06 1.11.32 2.21.67 3.59 1.09h-.01Zm.05 9.49c-.93-.49-1.72-.97-2.56-1.35-4.68-2.13-9.62-3.14-14.74-3.14-9.51 0-15.69 4.54-18.13 13.7-2.24 8.4-1.8 16.85.97 25.06 2 5.95 6.24 9.75 12.58 10.91 1.15.21 2.31.35 3.48.4 5.18.24 10.27-.22 15.17-2.08 2.28-.86 3.34-2.27 3.3-4.92-.14-11.98-.06-23.97-.06-35.95v-2.62l-.01-.01Zm-276.281.15h-9.75V26.47h9.87v-18h17.04v17.8h14.81v12.84h-14.64c-.07 1.03-.14 1.71-.15 2.39v29.2c0 .86 0 1.72.11 2.56.57 4.33 3.02 6.37 7.4 5.82 2.44-.31 4.81-1.11 7.32-1.72v13.56c-2.16 1.49-4.73 1.86-7.26 2.14-3.89.44-7.78.34-11.61-.65-7.5-1.95-12.15-7.4-12.79-15.12-.11-1.32-.15-2.64-.15-3.96-.01-10.43 0-20.87-.01-31.3 0-.89-.12-1.79-.19-2.87v.02ZM603.42 55.87c0-4.59.62-9.01-.89-13.3-1.1-3.1-3.29-5.23-6.3-6.54-4.59-2-9.42-2.08-14.25-1.44-6.96.92-8.58 1.58-15.95 5.52v-9.15c1.37-.64 2.92-1.55 4.59-2.09 8.34-2.72 16.88-3.75 25.59-2.4 10.17 1.58 16.49 8.57 16.7 18.83.22 11.05.12 22.11.03 33.16-.05 5.39-2.59 9.28-7.58 11.6-3.1 1.44-6.35 2.11-9.69 2.48-6.68.72-13.36 1.25-20.01-.25-4.08-.92-7.87-2.46-10.97-5.4-2.9-2.75-4.53-6.14-4.94-10.05-.39-3.65-.25-7.3.69-10.89 1.63-6.21 5.48-10.34 11.53-12.46 5.26-1.84 10.69-2.01 16.17-1.62 4.94.36 9.7 1.41 14.16 3.65.25.13.55.18 1.12.35Zm.05 8.22c-.35-.36-.44-.51-.57-.57-.49-.23-.99-.45-1.5-.65-5.76-2.2-11.75-3.07-17.87-2.67-2.45.16-4.97.67-7.27 1.52-6.01 2.2-8.67 7.76-6.93 13.93 1.33 4.75 4.96 6.97 9.33 8.23 4.87 1.41 9.87 1.21 14.84.75 2.08-.19 4.16-.59 6.18-1.14 2.34-.64 3.72-2.34 3.77-4.78.09-4.89.03-9.79.03-14.62h-.01Zm-209.861-3.44c.09 6.93 1.13 13.06 5.62 18.05 4.04 4.49 9.39 5.96 15.19 5.98 7.19.03 14.1-1.31 20.53-4.7.4-.21.82-.37 1.43-.64v9.39c-3.18 1.57-6.59 2.62-10.11 3.29-6.55 1.25-13.12 1.78-19.74.46-10.37-2.07-17.15-8.25-20.23-18.24-3.15-10.22-3.12-20.59.12-30.8 3.23-10.2 11.66-16.73 22.35-17.36 3.7-.22 7.52-.09 11.16.58 8.41 1.55 14.01 6.8 17.3 14.53 2.48 5.81 3.12 12.01 3.31 18.26 0 .3-.09.59-.19 1.2h-46.76.02Zm36.79-8.55c.21-2.68-.19-4.83-1.33-7.82-1.83-4.77-5.14-8.02-10.18-9.03-2.94-.59-6.03-.87-9.02-.71-4.35.23-8.47 1.47-11.37 5.11-2.87 3.6-3.94 7.81-4.35 12.45h36.25ZM76.9 27.15h16.11v63.94H76.9V27.15Zm109.24 0h16.15V91.1h-16.15V27.15Zm354.72 64.01h-8.75c-.55-1.61-.72-60.83-.16-63.98h8.91v63.98Zm92.89-12.59c-4.05 0-7.34 3.29-7.34 7.34s3.29 7.34 7.34 7.34 7.34-3.29 7.34-7.34-3.29-7.34-7.34-7.34Zm0 13.48c-3.39 0-6.14-2.75-6.14-6.14 0-3.39 2.76-6.14 6.14-6.14s6.14 2.76 6.14 6.14-2.75 6.14-6.14 6.14Z"></path><path fill="#fff" d="M636.36 85.83c.32-.36.49-.86.49-1.48 0-.73-.24-1.3-.73-1.7-.49-.4-1.15-.59-2-.59h-2.8v7.58h1.06v-2.89h1.7l1.83 2.89h1.25l-2.01-3.06c.48-.14.89-.39 1.21-.75Zm-2.29-.06h-1.69V83h1.65c1.17 0 1.76.46 1.76 1.39 0 .41-.12.74-.36 1s-.69.38-1.35.38h-.01Zm-252.74 39.18c0 6.76-4.68 11.15-11.03 11.15-2.97 0-5.49-1.02-7.2-3.09v2.81h-4.84v-30.2h5.09v11.11c1.75-1.95 4.19-2.89 6.96-2.89 6.35 0 11.03 4.35 11.03 11.11h-.01Zm-5.17 0c0-4.15-2.77-6.8-6.43-6.8-3.66 0-6.47 2.65-6.47 6.8s2.81 6.8 6.47 6.8c3.66 0 6.43-2.65 6.43-6.8Zm29.75-10.86-10.17 23.48c-1.99 4.92-4.76 6.43-8.38 6.43-2.16 0-4.44-.73-5.82-1.99l2.03-3.74a5.5 5.5 0 0 0 3.74 1.51c1.79 0 2.85-.85 3.83-3.01l.37-.85-9.48-21.81h5.29l6.84 16.08 6.88-16.08h4.88l-.01-.02Zm14.89-6.76h12.45c9.24 0 15.55 5.7 15.55 14.24s-6.31 14.24-15.55 14.24H420.8v-28.49.01Zm12.21 24.01c6.35 0 10.46-3.87 10.46-9.77 0-5.9-4.11-9.77-10.46-9.77h-6.92v19.54h6.92Zm39.11-8.26v12.74h-4.8v-2.65c-1.22 1.87-3.58 2.93-6.84 2.93-4.97 0-8.1-2.73-8.1-6.51s2.44-6.47 9.03-6.47h5.62v-.33c0-2.97-1.79-4.72-5.41-4.72-2.44 0-4.97.81-6.59 2.16l-1.99-3.7c2.32-1.79 5.7-2.69 9.2-2.69 6.27 0 9.89 2.97 9.89 9.24h-.01Zm-5.08 5.94v-2.52h-5.25c-3.46 0-4.4 1.3-4.4 2.89 0 1.83 1.55 3.01 4.15 3.01 2.6 0 4.64-1.14 5.49-3.38h.01Zm24.66 5.62c-1.22.98-3.05 1.47-4.88 1.47-4.76 0-7.49-2.52-7.49-7.33v-10.46h-3.58v-4.07h3.58v-4.97h5.09v4.97h5.82v4.07h-5.82v10.34c0 2.12 1.06 3.26 3.01 3.26 1.06 0 2.08-.28 2.85-.9l1.42 3.62Zm22.38-11.56v12.74h-4.8v-2.65c-1.22 1.87-3.58 2.93-6.84 2.93-4.97 0-8.1-2.73-8.1-6.51s2.44-6.47 9.03-6.47h5.62v-.33c0-2.97-1.79-4.72-5.41-4.72-2.44 0-4.97.81-6.59 2.16l-1.99-3.7c2.32-1.79 5.7-2.69 9.2-2.69 6.27 0 9.89 2.97 9.89 9.24h-.01Zm-5.08 5.94v-2.52h-5.25c-3.46 0-4.4 1.3-4.4 2.89 0 1.83 1.55 3.01 4.15 3.01 2.6 0 4.64-1.14 5.49-3.38h.01Zm10.05-7.44c0-8.51 6.51-14.65 15.26-14.65 4.64 0 8.63 1.67 11.27 4.76l-3.42 3.22c-2.08-2.24-4.64-3.34-7.61-3.34-5.9 0-10.17 4.15-10.17 10.01 0 5.86 4.27 10.01 10.17 10.01 2.97 0 5.53-1.1 7.61-3.38l3.42 3.26c-2.65 3.09-6.63 4.76-11.31 4.76-8.71 0-15.22-6.15-15.22-14.65Zm28.53 3.37c0-6.51 4.88-11.11 11.56-11.11 6.68 0 11.6 4.6 11.6 11.11s-4.84 11.15-11.6 11.15-11.56-4.64-11.56-11.15Zm18.03 0c0-4.15-2.77-6.8-6.47-6.8-3.7 0-6.43 2.65-6.43 6.8s2.77 6.8 6.43 6.8c3.66 0 6.47-2.65 6.47-6.8Zm22.579-11.11v4.84c-.45-.08-.81-.12-1.18-.12-3.87 0-6.31 2.28-6.31 6.72v10.54h-5.09v-21.73h4.84v3.17c1.47-2.28 4.11-3.42 7.73-3.42h.01Zm24.461 12.74H595.6c.61 3.17 3.26 5.21 7.04 5.21 2.44 0 4.35-.77 5.9-2.36l2.73 3.13c-1.95 2.32-5.01 3.54-8.75 3.54-7.29 0-12.01-4.68-12.01-11.15 0-6.47 4.76-11.11 11.23-11.11 6.47 0 10.99 4.44 10.99 11.23 0 .41-.04 1.02-.08 1.51Zm-17.09-3.38h12.33c-.41-3.13-2.81-5.29-6.15-5.29-3.34 0-5.7 2.12-6.19 5.29h.01Z"></path></g><defs><clipPath id="a"><path fill="#fff" d="M0 0h642v144H0z"></path></clipPath></defs></svg> 