<?xml version="1.0" encoding="UTF-8"?> <svg xmlns="http://www.w3.org/2000/svg" width="32" height="42" fill="none" viewBox="0 0 181 267" preserveAspectRatio="xMidYMid meet"><g clip-path="url(#a)"><path fill="#00A0FF" d="M79.75-.121c27.718-.655 56.011 5.013 76.707 24.426 20.963 21.784 25.063 54.457 24.758 83.402-.617 25.142-8.066 49.71-24.215 69.293l-1.566 1.91c-8.421 9.265-20.618 15.511-32.434 19.09l-3.164.965C95.732 204.977 71.065 200.688 48 193v74H0a55272.486 55272.486 0 0 1-.22-97.717l-.003-2.077c-.017-11.083-.049-22.166-.086-33.25-.037-11.379-.059-22.758-.067-34.137-.006-6.39-.018-12.778-.047-19.167-.027-6.016-.035-12.032-.03-18.049 0-2.205-.008-4.41-.024-6.615-.02-3.018-.015-6.035-.004-9.054l-.035-2.623C-.438 36.207 1.887 29.1 7.25 22.938 26.358 5.424 54.843.976 79.75-.122Zm-16 43.871-2.091.475C55.816 45.722 51.379 47.931 48 53c-.294 1.958-.294 1.958-.24 4.12l-.009 2.536.022 2.773-.001 2.927c.001 3.198.017 6.395.033 9.593l.008 6.646c.008 5.835.027 11.67.05 17.504.02 5.952.03 11.904.04 17.856.02 11.682.055 23.363.097 35.045 1.585.808 3.172 1.612 4.76 2.415l2.677 1.358c13.822 6.617 31.329 7.515 45.95 3.207 10.39-3.898 18.346-10.13 23.613-19.98 9.787-23.733 9.577-52.207 0-76-4.273-8.502-10.889-14.75-19.875-18.059A95.639 95.639 0 0 0 97 43l-2.809-.55c-10.172-1.433-20.447-1.017-30.441 1.3Z"></path></g><defs><clipPath id="a"><path fill="#fff" d="M0 0h181v267H0z"></path></clipPath></defs></svg>